#!OML:ASF H:\GeneralSubjects\Female5\Project 1\Capture day 1\Session 1\Female5.ASF
:FULLY-SPECIFIED
:DEGREES
656
root 4.98178 16.0271 3.21818 183.402 -80.0542 -178.116
lowerback 9.7609 2.49354 5.56901
upperback -8.68216 4.23042 0.73102
thorax -14.83 1.35113 -3.2104
lowerneck -15.1753 -7.04466 -6.99767
upperneck 34.6037 -10.6543 2.34404
head 15.1239 -5.59695 0.195353
rclavicle -2.38542e-015 1.03368e-014
rhumerus -54.4698 14.6396 -76.3232
rradius 59.5848
rwrist 13.7508
rhand -25.8056 -7.88441
rfingers 7.12502
rthumb 0.733467 -37.8629
lclavicle -2.38542e-015 1.03368e-014
lhumerus -56.8456 12.3353 55.2391
lradius 16.6449
lwrist -22.9121
lhand 5.61031 29.3369
lfingers 7.12502
lthumb 30.9519 -303.252
rfemur -12.6168 14.1236 15.4366
rtibia 11.4074
rfoot 354.082 -29.3389
rtoes -24.3641
lfemur -0.77632 -15.9229 -34.6501
ltibia 10.3887
lfoot -33.0539 1.51749
ltoes -37.3051
657
root 4.98165 16.0237 3.22178 183.173 -80.1577 -178.054
lowerback 9.87835 2.46227 4.96914
upperback -8.46225 4.09402 0.675102
thorax -14.6813 1.36263 -2.91341
lowerneck -16.1125 -7.01195 -6.38719
upperneck 34.5625 -10.644 2.27106
head 15.2668 -5.4837 0.0295767
rclavicle 4.77083e-015 6.36111e-015
rhumerus -54.9283 15.0749 -77.0358
rradius 59.0835
rwrist 13.4588
rhand -26.0118 -7.79109
rfingers 7.12502
rthumb 0.534302 -37.7702
lclavicle 4.77083e-015 6.36111e-015
lhumerus -56.5922 12.5871 55.2491
lradius 16.5552
lwrist -23.8056
lhand 6.33555 26.7389
lfingers 7.12502
lthumb 31.643 -305.984
rfemur -12.1182 14.4736 15.5245
rtibia 11.1358
rfoot 350.191 -28.98
rtoes -15.5391
lfemur -0.636865 -15.5862 -34.5986
ltibia 10.461
lfoot -32.6717 1.05724
ltoes -37.3689
658
root 4.98337 16.0219 3.23161 182.523 -80.3725 -177.535
lowerback 9.75365 2.44207 4.45658
upperback -8.44282 3.97861 0.714459
thorax -14.6205 1.36858 -2.55279
lowerneck -15.8874 -6.95583 -6.28435
upperneck 34.3789 -10.618 2.36324
head 15.1254 -5.45319 0.0709322
rclavicle 9.14409e-015 -1.98785e-014
rhumerus -55.9103 15.5136 -77.5627
rradius 58.7442
rwrist 13.0985
rhand -25.4577 -7.80535
rfingers 7.12502
rthumb 1.06948 -37.7824
lclavicle 9.14409e-015 -1.98785e-014
lhumerus -56.6655 11.9674 55.9803
lradius 17.1639
lwrist -23.5825
lhand 6.27461 24.8975
lfingers 7.12502
lthumb 31.5849 -307.814
rfemur -11.9711 14.2855 15.5647
rtibia 11.0598
rfoot 349.446 -29.016
rtoes -12.7088
lfemur -0.70588 -14.921 -34.4287
ltibia 10.4727
lfoot -31.7435 0.099723
ltoes -36.2014
659
root 4.99 16.0212 3.24891 180.521 -80.7498 -175.685
lowerback 9.75075 2.37791 4.1703
upperback -8.40137 3.85767 0.818977
thorax -14.602 1.35129 -2.25081
lowerneck -15.8227 -6.96657 -6.13254
upperneck 34.3215 -10.6245 2.22913
head 15.062 -5.45602 -0.00483661
rclavicle 1.98785e-014 6.36111e-015
rhumerus -56.7477 15.6972 -77.8728
rradius 58.5645
rwrist 12.7673
rhand -24.4844 -8.63634
rfingers 7.12502
rthumb 2.00954 -38.6066
lclavicle 1.98785e-014 6.36111e-015
lhumerus -56.4227 11.9527 55.9894
lradius 18.2942
lwrist -21.695
lhand 6.99075 24.907
lfingers 7.12502
lthumb 32.2669 -307.941
rfemur -12.265 12.8327 15.7991
rtibia 11.7492
rfoot 351.605 -28.9753
rtoes -15.1488
lfemur -0.775766 -14.5461 -34.0985
ltibia 10.6304
lfoot -30.9341 -0.230194
ltoes -36.4046
660
root 5.00566 16.0158 3.2734 176.989 -81.1716 -172.324
lowerback 9.85763 2.28717 4.19981
upperback -8.3556 3.76355 0.958763
thorax -14.6304 1.31414 -2.09646
lowerneck -15.8942 -6.95681 -5.90601
upperneck 34.3524 -10.5776 1.97877
head 15.0541 -5.4384 -0.138413
rclavicle -4.96962e-015 1.98785e-015
rhumerus -57.6109 15.7832 -78.0421
rradius 58.6629
rwrist 12.6318
rhand -24.2137 -9.03687
rfingers 7.12502
rthumb 2.27102 -39.0045
lclavicle -4.96962e-015 1.98785e-015
lhumerus -55.9418 11.6394 56.3249
lradius 19.6548
lwrist -19.4989
lhand 4.61991 24.6038
lfingers 7.12502
lthumb 30.0074 -307.81
rfemur -13.0335 10.3938 16.218
rtibia 13.3425
rfoot 354.552 -28.1111
rtoes -19.0353
lfemur -0.771959 -14.4845 -33.591
ltibia 10.8461
lfoot -30.3926 -0.458222
ltoes -37.0676
661
root 5.0312 16.0051 3.30777 173.977 -81.5033 -169.472
lowerback 9.98074 2.20766 4.21839
upperback -8.31262 3.67838 1.05004
thorax -14.6685 1.27881 -1.99245
lowerneck -15.9182 -6.94025 -5.83583
upperneck 34.3273 -10.5522 1.95162
head 15.0391 -5.42021 -0.156052
rclavicle -1.2921e-014 5.1684e-015
rhumerus -58.3375 15.906 -78.1186
rradius 58.7382
rwrist 12.9127
rhand -24.4923 -8.55749
rfingers 7.12502
rthumb 2.00195 -38.5278
lclavicle -1.2921e-014 5.1684e-015
lhumerus -55.2876 11.1452 56.8098
lradius 21.3642
lwrist -17.084
lhand 1.22884 24.6162
lfingers 7.12502
lthumb 26.7669 -307.258
rfemur -14.4767 7.30361 16.359
rtibia 15.8984
rfoot 357.367 -26.3877
rtoes -21.3962
lfemur -0.797538 -14.3548 -33.2374
ltibia 10.9683
lfoot -29.832 -0.614895
ltoes -37.385
662
root 5.06317 15.9901 3.35466 172.615 -81.7866 -168.269
lowerback 10.1428 2.13216 4.04696
upperback -8.23844 3.55994 1.05375
thorax -14.699 1.24366 -1.87413
lowerneck -15.8833 -6.93232 -5.84375
upperneck 34.1847 -10.5712 2.1042
head 14.9773 -5.40657 -0.090037
rclavicle 1.78409e-014 1.19271e-014
rhumerus -58.7019 15.9973 -78.1123
rradius 58.5712
rwrist 13.2208
rhand -24.3683 -8.59426
rfingers 7.12502
rthumb 2.12169 -38.5635
lclavicle 1.78409e-014 1.19271e-014
lhumerus -54.5579 10.3739 57.4871
lradius 23.4829
lwrist -14.27
lhand -3.03429 24.8507
lfingers 7.12502
lthumb 22.6811 -306.462
rfemur -16.7368 3.59244 16.0549
rtibia 19.6409
rfoot 360.091 -24.0644
rtoes -21.8807
lfemur -0.867159 -14.2527 -33.266
ltibia 11.1321
lfoot -29.3576 -0.793714
ltoes -37.2696
663
root 5.10277 15.9697 3.40832 171.394 -81.982 -167.325
lowerback 10.4458 2.05843 3.87115
upperback -8.07514 3.45226 1.06006
thorax -14.7111 1.21731 -1.75758
lowerneck -15.786 -6.93999 -5.82331
upperneck 33.9095 -10.5975 2.23229
head 14.8362 -5.39602 -0.0333447
rclavicle -3.29486e-014 -2.10712e-014
rhumerus -58.9202 16.13 -78.0091
rradius 58.5263
rwrist 13.2883
rhand -24.0318 -9.06664
rfingers 7.12502
rthumb 2.44669 -39.0324
lclavicle -3.29486e-014 -2.10712e-014
lhumerus -53.7226 9.53178 58.1763
lradius 25.7252
lwrist -11.8057
lhand -8.22533 24.7148
lfingers 7.12502
lthumb 17.692 -306.07
rfemur -19.51 -0.0198609 15.6992
rtibia 24.0669
rfoot 364.301 -21.9118
rtoes -24.8436
lfemur -0.795717 -14.2729 -33.4227
ltibia 11.2983
lfoot -29.1046 -0.858861
ltoes -36.4381
664
root 5.15175 15.9451 3.46378 170.082 -82.0439 -166.427
lowerback 10.9064 2.00652 3.64683
upperback -7.87719 3.37994 1.11501
thorax -14.7852 1.21449 -1.57332
lowerneck -15.7455 -6.93295 -5.70037
upperneck 33.7351 -10.5889 2.20772
head 14.7346 -5.37866 -0.0543035
rclavicle -2.5842e-014 -2.8625e-014
rhumerus -58.994 16.3176 -77.8005
rradius 58.4803
rwrist 13.2638
rhand -23.8855 -9.20074
rfingers 7.12502
rthumb 2.58798 -39.1648
lclavicle -2.5842e-014 -2.8625e-014
lhumerus -52.9422 8.4785 58.9473
lradius 28.3187
lwrist -9.70585
lhand -13.6534 26.3726
lfingers 7.12502
lthumb 12.4633 -304.019
rfemur -22.6186 -3.05249 15.3853
rtibia 28.7044
rfoot 369.836 -20.1879
rtoes -27.882
lfemur -0.544241 -14.2191 -33.5718
ltibia 11.3053
lfoot -28.9347 -0.80278
ltoes -35.3018
